<?xml version="1.0" standalone="no"?>
<!DOCTYPE svg PUBLIC "-//W3C//DTD SVG 20010904//EN"
 "http://www.w3.org/TR/2001/REC-SVG-20010904/DTD/svg10.dtd">
<svg version="1.0" xmlns="http://www.w3.org/2000/svg"
 width="2306.000000pt" height="710.000000pt" viewBox="0 0 2306.000000 710.000000"
 preserveAspectRatio="xMidYMid meet">

<g transform="translate(0.000000,710.000000) scale(0.100000,-0.100000)"
fill="#000000" stroke="none">
<path d="M3870 7094 c-25 -2 -101 -8 -170 -14 -509 -43 -971 -202 -1385 -474
-443 -292 -744 -632 -990 -1121 -195 -385 -307 -768 -364 -1235 -18 -144 -20
-152 -104 -361 -112 -279 -312 -753 -608 -1436 -131 -303 -239 -554 -239 -557
0 -3 196 -6 435 -6 l435 0 0 -940 0 -940 2070 0 2070 0 -6 27 c-4 15 -53 194
-109 398 l-102 370 -1572 3 -1571 2 0 880 0 880 -261 0 c-205 0 -260 3 -256
13 3 6 149 361 326 788 177 427 321 789 321 805 0 66 41 383 64 494 77 373
261 720 526 994 185 191 354 314 595 431 445 217 894 274 1387 175 449 -90
828 -291 1143 -605 306 -304 502 -665 599 -1098 97 -434 32 -937 -179 -1393
-86 -184 -208 -370 -327 -499 l-56 -61 372 -1289 372 -1290 377 -3 c249 -1
377 1 377 8 0 5 -135 515 -299 1132 -165 618 -307 1153 -316 1190 l-17 68 67
102 c78 120 198 361 250 501 129 352 188 687 188 1072 0 466 -81 842 -279
1303 -224 520 -783 1092 -1336 1366 -198 98 -569 229 -768 271 -181 38 -504
62 -660 49z"/>
<path d="M3690 6075 c-322 -44 -638 -170 -865 -344 -510 -391 -739 -802 -810
-1450 l-16 -145 -140 -365 c-172 -448 -355 -936 -364 -973 l-7 -28 68 0 c38 0
126 -3 197 -7 l127 -6 0 -879 0 -878 1436 0 1435 0 -7 23 c-4 12 -55 186 -114
387 l-106 365 -935 5 -934 5 -3 783 -2 782 -75 0 c-41 0 -75 3 -75 7 0 10 140
395 216 593 64 167 67 180 74 290 16 251 153 535 355 736 237 235 537 346 899
331 182 -7 314 -42 480 -124 109 -54 183 -110 270 -204 339 -366 436 -874 252
-1324 -79 -195 -252 -395 -461 -534 -60 -40 -111 -79 -113 -85 -3 -13 82 -322
319 -1160 243 -858 432 -1544 495 -1798 l16 -68 394 0 c310 0 392 3 389 13 -3
6 -180 611 -395 1342 l-390 1330 37 30 c60 49 180 193 255 304 206 308 327
718 328 1106 0 161 -10 258 -46 435 -33 160 -62 246 -134 395 -294 604 -864
1012 -1551 1110 -126 18 -369 18 -499 0z"/>
<path d="M9740 5269 c-337 -29 -638 -108 -884 -231 -185 -93 -288 -171 -467
-356 -424 -435 -633 -850 -733 -1452 -37 -226 -46 -344 -46 -638 0 -224 3
-279 20 -362 74 -364 299 -728 536 -868 261 -155 637 -222 1164 -209 627 17
992 139 1453 489 106 81 257 234 329 334 124 173 209 376 212 504 l1 75 -157
0 c-87 0 -346 -1 -577 -3 l-418 -2 -12 -59 c-24 -124 -111 -252 -241 -354
-118 -93 -174 -123 -295 -158 -99 -29 -124 -32 -245 -32 -208 -1 -328 41 -430
149 -130 138 -208 475 -171 742 5 37 17 121 26 187 30 224 36 260 70 390 103
398 244 691 418 868 199 203 325 266 577 284 130 9 298 -30 410 -97 84 -50
128 -93 156 -155 28 -61 48 -183 41 -247 l-6 -48 593 0 593 0 23 85 c21 77 22
100 17 228 -12 284 -98 473 -274 607 -142 107 -445 231 -683 279 -233 47 -388
61 -654 60 -138 -1 -294 -5 -346 -10z"/>
<path d="M12210 5166 c0 -3 -182 -883 -405 -1956 -223 -1073 -405 -1953 -405
-1955 0 -3 229 -5 509 -5 l509 0 10 48 c6 26 140 695 298 1486 188 939 290
1433 295 1420 8 -19 729 -2936 729 -2948 0 -3 348 -5 773 -4 l772 3 417 1925
c230 1059 420 1940 424 1958 l6 32 -510 0 -510 0 -19 -82 c-11 -46 -154 -678
-319 -1405 -164 -728 -301 -1323 -304 -1323 -3 0 -160 632 -350 1405 l-344
1405 -788 0 c-433 0 -788 -2 -788 -4z"/>
<path d="M16231 3223 c-222 -1072 -406 -1954 -409 -1960 -3 -10 111 -13 552
-13 l556 0 5 22 c3 13 66 309 140 658 74 349 137 645 140 657 l5 22 568 4
c526 3 576 5 687 25 374 66 666 188 911 378 338 262 510 697 491 1242 -6 184
-26 274 -88 402 -32 65 -60 102 -118 160 -67 67 -92 84 -211 143 -235 116
-465 171 -785 189 -104 6 -606 12 -1115 14 l-925 4 -404 -1947z m2152 1114
c172 -50 279 -169 294 -329 20 -219 -214 -526 -466 -610 -62 -21 -87 -22 -438
-26 -363 -3 -373 -3 -373 16 0 24 199 952 207 964 3 6 144 8 362 5 291 -3 367
-7 414 -20z"/>
<path d="M3804 4876 c-151 -35 -267 -100 -384 -216 -150 -148 -222 -323 -223
-540 -1 -177 44 -314 153 -462 95 -129 269 -242 435 -284 145 -36 327 -20 477
40 188 76 344 235 417 426 55 143 65 337 26 485 -39 145 -146 308 -263 400
-69 55 -195 119 -277 141 -83 22 -283 27 -361 10z"/>
<path d="M21040 4079 c-396 -45 -701 -191 -893 -430 -166 -205 -318 -478 -395
-709 -22 -69 -56 -195 -74 -280 -33 -154 -33 -156 -33 -440 0 -276 1 -288 27
-390 36 -144 84 -252 163 -371 72 -107 129 -161 227 -210 268 -135 752 -129
1033 14 74 37 189 130 298 240 59 59 107 104 107 98 0 -5 -63 -326 -140 -712
-77 -387 -140 -704 -140 -706 0 -2 229 -3 509 -3 l509 0 5 23 c6 23 793 3682
803 3736 l7 31 -510 0 -510 0 -42 -158 c-22 -87 -41 -164 -41 -170 0 -20 -18
-13 -37 14 -54 78 -176 215 -242 272 -164 140 -344 183 -631 151z m419 -639
c80 -13 148 -48 191 -96 55 -63 113 -212 130 -335 14 -99 -10 -312 -49 -429
-16 -47 -45 -139 -66 -205 -128 -414 -298 -574 -613 -576 -106 -1 -138 5 -193
32 -71 35 -139 149 -161 268 -14 72 3 332 26 421 8 30 24 103 35 163 21 108
82 288 128 382 44 88 131 213 180 260 58 55 148 102 223 114 77 12 96 12 169
1z"/>
</g>
</svg>
