<?xml version="1.0" standalone="no"?>
<!DOCTYPE svg PUBLIC "-//W3C//DTD SVG 20010904//EN"
 "http://www.w3.org/TR/2001/REC-SVG-20010904/DTD/svg10.dtd">
<svg version="1.0" xmlns="http://www.w3.org/2000/svg"
 width="280.000000pt" height="280.000000pt" viewBox="0 0 280.000000 280.000000"
 preserveAspectRatio="xMidYMid meet">

<g transform="translate(0.000000,280.000000) scale(0.100000,-0.100000)"
fill="#000000" stroke="none">
<path d="M330 2107 c0 -574 0 -573 51 -565 l24 3 3 507 2 508 508 2 507 3 3
38 3 37 -550 0 -551 0 0 -533z"/>
<path d="M2408 1083 l-3 -508 -440 -5 -440 -5 0 -35 0 -35 470 0 470 0 3 548
2 547 -30 0 -30 0 -2 -507z"/>
<path d="M707 1094 c-4 -4 -7 -33 -7 -64 l0 -56 -58 4 c-55 4 -60 2 -84 -26
-48 -58 -45 -176 7 -228 21 -21 31 -23 114 -22 l91 1 -2 196 -3 196 -25 3
c-14 2 -29 0 -33 -4z m-19 -176 c7 -7 12 -40 12 -80 0 -56 -3 -69 -19 -78 -53
-28 -91 6 -91 80 0 25 7 56 16 68 17 24 62 30 82 10z"/>
<path d="M1330 890 l0 -191 123 3 122 3 0 30 0 30 -75 5 -75 5 -3 139 c-1 82
-7 145 -14 153 -6 7 -26 13 -44 13 l-34 0 0 -190z"/>
<path d="M1736 1072 c-6 -10 -136 -362 -136 -368 0 -2 20 -4 44 -4 40 0 46 3
65 35 19 33 23 35 74 35 51 0 54 -2 68 -32 12 -29 19 -33 57 -36 49 -4 51 0
21 78 -21 56 -43 117 -74 205 -28 78 -43 95 -81 95 -18 0 -35 -4 -38 -8z m62
-167 c17 -63 16 -65 -18 -65 -25 0 -30 4 -30 24 0 28 19 86 29 86 4 0 12 -20
19 -45z"/>
<path d="M1998 1074 c-5 -4 -8 -90 -8 -191 l0 -183 95 0 c58 0 108 5 128 14
66 27 87 101 43 153 -24 28 -24 29 -5 52 36 45 21 109 -32 137 -34 17 -209 32
-221 18z m169 -85 c34 -29 6 -69 -49 -69 -37 0 -38 1 -38 38 0 21 3 42 7 46
10 10 62 -1 80 -15z m13 -144 c32 -39 -17 -86 -75 -71 -21 5 -25 12 -25 46 l0
40 44 0 c26 0 48 -6 56 -15z"/>
<path d="M1157 1043 c-4 -3 -7 -19 -7 -35 0 -21 -5 -28 -20 -28 -15 0 -20 -7
-20 -25 0 -18 5 -25 20 -25 18 0 20 -7 20 -72 0 -130 21 -166 91 -156 34 4 39
45 7 50 -22 3 -23 8 -26 91 -3 80 -1 87 17 87 20 0 35 25 25 41 -3 5 -14 9
-25 9 -15 0 -19 7 -19 35 0 32 -3 35 -28 35 -16 0 -32 -3 -35 -7z"/>
<path d="M862 946 c-55 -63 -51 -170 9 -220 24 -21 41 -26 82 -26 56 1 79 13
109 57 26 40 24 125 -3 169 -27 45 -47 54 -112 54 -50 0 -58 -3 -85 -34z m137
-42 c61 -78 -22 -201 -89 -134 -25 25 -27 105 -4 138 22 31 67 29 93 -4z"/>
<path d="M544 597 c-2 -7 -3 -65 -2 -128 l3 -114 39 -3 c56 -5 81 4 94 33 16
35 15 65 -3 85 -13 14 -14 22 -4 43 16 35 4 76 -27 87 -36 14 -94 12 -100 -3z
m81 -62 c0 -39 -37 -44 -40 -5 -3 32 3 42 23 38 11 -2 17 -13 17 -33z m15
-103 c0 -27 -16 -44 -36 -40 -21 4 -27 44 -11 65 12 17 47 -2 47 -25z"/>
<path d="M730 481 c0 -124 1 -131 20 -131 17 0 20 7 20 49 0 55 9 66 45 57 20
-5 24 -13 27 -54 3 -40 6 -47 26 -50 20 -3 22 1 22 45 0 27 -6 58 -14 68 -11
16 -11 21 0 33 17 17 18 63 2 85 -9 11 -35 19 -80 23 l-68 7 0 -132z m94 83
c20 -8 21 -48 1 -64 -21 -17 -50 -8 -53 18 -7 46 12 62 52 46z"/>
<path d="M977 603 c-7 -12 -57 -220 -57 -238 0 -26 44 -15 48 12 8 52 60 54
72 2 7 -30 50 -40 50 -12 0 23 -40 203 -50 223 -8 16 -55 26 -63 13z m43 -120
c0 -23 -5 -33 -15 -33 -16 0 -19 28 -8 68 8 32 23 9 23 -35z"/>
<path d="M1127 603 c-19 -19 -5 -33 34 -33 37 0 40 -2 33 -22 -4 -13 -22 -51
-40 -85 -19 -33 -34 -73 -34 -87 0 -26 1 -26 70 -26 63 0 70 2 70 20 0 17 -7
20 -45 20 l-45 0 47 94 c27 55 44 100 40 110 -5 12 -20 16 -65 16 -32 0 -62
-3 -65 -7z"/>
<path d="M1295 598 c-3 -8 -4 -66 -3 -129 3 -106 4 -114 23 -114 19 0 20 7 20
125 0 111 -2 125 -18 128 -9 2 -19 -3 -22 -10z"/>
<path d="M1397 604 c-4 -4 -7 -63 -7 -131 l0 -123 66 0 c57 0 65 2 62 18 -2
12 -13 17 -35 17 -18 0 -36 5 -42 10 -6 6 -12 55 -13 109 -3 92 -11 119 -31
100z"/>
</g>
</svg>
