<?xml version="1.0" standalone="no"?>
<!DOCTYPE svg PUBLIC "-//W3C//DTD SVG 20010904//EN"
 "http://www.w3.org/TR/2001/REC-SVG-20010904/DTD/svg10.dtd">
<svg version="1.0" xmlns="http://www.w3.org/2000/svg"
 width="1870.000000pt" height="689.000000pt" viewBox="0 0 1870.000000 689.000000"
 preserveAspectRatio="xMidYMid meet">

<g transform="translate(0.000000,689.000000) scale(0.100000,-0.100000)"
fill="#000000" stroke="none">
<path d="M1740 5581 l-1104 -636 180 -5 179 -6 -187 -2 -188 -2 0 -1278 0
-1278 1102 -634 c607 -349 1108 -634 1114 -634 7 1 503 284 1104 630 l1091
629 -1463 3 -1464 2 -368 638 c-203 350 -369 642 -369 648 0 6 160 288 356
627 197 339 360 623 363 632 6 13 -53 15 -542 17 -302 2 33 5 743 8 l1293 5
-368 636 -368 636 -1104 -636z"/>
<path d="M10609 4950 c-401 -64 -677 -281 -771 -607 -23 -77 -23 -84 -23 -688
0 -604 0 -611 23 -688 97 -336 388 -555 809 -608 115 -14 305 -7 418 16 173
35 379 123 468 198 l38 32 -117 190 c-65 105 -119 192 -120 194 -2 2 -32 -15
-66 -37 -35 -23 -90 -53 -123 -68 -125 -55 -339 -80 -467 -53 -124 26 -244
113 -302 218 -51 94 -56 147 -56 607 0 456 4 503 51 600 104 211 350 289 664
209 101 -25 151 -48 236 -105 l57 -38 121 195 122 195 -33 29 c-95 80 -260
151 -444 190 -111 24 -388 34 -485 19z"/>
<path d="M5780 3655 l0 -1285 253 2 252 3 3 523 2 522 535 0 535 0 0 230 0
230 -535 0 -535 0 0 300 0 300 630 0 630 0 -2 228 -3 227 -882 3 -883 2 0
-1285z"/>
<path d="M8246 4932 c-3 -5 -203 -571 -445 -1258 -242 -687 -444 -1261 -450
-1276 l-11 -28 273 0 273 0 84 265 83 265 448 0 448 0 21 -67 c11 -38 46 -156
78 -263 l58 -195 278 -3 c221 -2 277 0 274 10 -3 7 -200 571 -438 1253 -238
682 -438 1255 -446 1273 l-13 32 -255 0 c-140 0 -257 -4 -260 -8z m369 -952
c57 -190 123 -412 149 -494 25 -83 44 -151 42 -153 -1 -2 -140 -2 -307 -1
l-305 3 72 235 c39 129 107 353 149 498 43 144 83 261 88 259 5 -1 56 -158
112 -347z"/>
<path d="M11930 3655 l0 -1285 883 2 882 3 3 228 2 227 -630 0 -630 0 0 300 0
300 535 0 535 0 0 230 0 230 -535 0 -535 0 0 295 0 295 630 0 630 0 -2 228 -3
227 -882 3 -883 2 0 -1285z"/>
<path d="M14070 3655 l0 -1285 255 0 255 0 0 485 0 485 358 0 c406 0 448 5
577 69 156 77 270 197 351 366 68 144 79 196 78 375 -1 139 -4 164 -28 245
-74 244 -245 435 -451 503 -112 38 -197 42 -806 42 l-589 0 0 -1285z m1198
796 c69 -31 144 -113 168 -183 28 -82 25 -208 -8 -278 -52 -115 -132 -173
-261 -190 -39 -5 -188 -10 -329 -10 l-258 0 0 346 0 345 318 -3 c309 -3 318
-4 370 -27z"/>
<path d="M16310 3655 l0 -1285 885 0 885 0 0 230 0 230 -630 0 -630 0 0 300 0
300 538 2 537 3 3 228 2 227 -540 0 -540 0 0 295 0 295 630 0 630 0 0 230 0
230 -885 0 -885 0 0 -1285z"/>
<path d="M4695 4279 c-203 -353 -533 -922 -732 -1267 -200 -344 -363 -627
-363 -629 0 -1 331 -3 735 -3 l735 0 0 1270 c0 699 -1 1270 -2 1270 -2 -1
-169 -289 -373 -641z"/>
<path d="M7240 1990 l0 -100 -32 20 c-46 28 -115 26 -158 -3 -53 -35 -75 -81
-75 -157 0 -117 53 -180 153 -180 43 0 57 5 87 31 l35 31 0 -31 c0 -26 4 -31
25 -31 l25 0 0 260 0 260 -30 0 -30 0 0 -100z m-34 -134 c24 -20 28 -33 32
-88 6 -99 -26 -148 -98 -148 -17 0 -40 5 -51 10 -64 35 -66 202 -2 239 33 19
90 13 119 -13z"/>
<path d="M9280 1988 c0 -101 0 -101 -20 -83 -30 27 -116 31 -160 7 -50 -28
-80 -90 -80 -166 0 -73 22 -121 70 -153 56 -39 160 -25 189 24 9 15 10 12 11
-14 0 -30 3 -33 30 -33 l30 0 0 260 0 260 -35 0 -35 0 0 -102z m-26 -134 c23
-24 26 -34 26 -100 0 -63 -3 -76 -26 -103 -54 -65 -153 -29 -169 62 -10 52 1
101 31 137 35 41 98 43 138 4z"/>
<path d="M12702 2052 c40 -57 69 -83 88 -80 20 3 20 5 -9 51 -26 39 -36 47
-61 47 -28 0 -30 -2 -18 -18z"/>
<path d="M13465 2047 c-97 -46 -140 -121 -139 -242 1 -109 58 -195 149 -225
37 -12 198 -10 211 3 4 3 4 17 0 31 -6 23 -9 24 -32 16 -37 -14 -119 -12 -157
4 -39 16 -82 61 -96 99 -27 71 -3 196 45 239 48 43 132 59 201 39 28 -8 33 -7
39 11 10 32 -12 43 -94 46 -64 2 -85 -1 -127 -21z"/>
<path d="M13780 2055 c-26 -32 13 -81 48 -59 34 22 22 74 -18 74 -10 0 -23 -7
-30 -15z"/>
<path d="M14056 2045 c-9 -14 -23 -36 -32 -50 -16 -24 -16 -25 8 -25 17 0 29
10 42 35 l19 35 24 -35 c14 -20 32 -35 43 -35 26 0 25 4 -12 56 -36 51 -67 57
-92 19z"/>
<path d="M15082 2058 c-25 -25 -7 -68 29 -68 25 0 42 26 35 55 -7 27 -42 35
-64 13z"/>
<path d="M5840 1815 l0 -245 30 0 30 0 0 115 0 115 96 0 c93 0 95 1 92 23 -3
21 -8 22 -95 25 l-93 3 0 79 0 80 100 0 100 0 0 25 0 25 -130 0 -130 0 0 -245z"/>
<path d="M8284 2043 c-10 -16 -15 -16 -46 -5 -52 18 -73 15 -86 -13 -7 -14
-12 -30 -12 -35 0 -18 29 -10 40 10 10 19 13 19 40 5 56 -29 100 -12 100 39 0
21 -22 20 -36 -1z"/>
<path d="M10125 2048 c-59 -166 -155 -455 -155 -465 0 -8 11 -13 28 -13 26 0
30 5 53 78 l25 77 90 0 89 0 26 -75 c25 -70 28 -75 58 -78 17 -2 31 0 31 5 0
4 -37 114 -81 245 l-82 238 -39 0 c-22 0 -41 -5 -43 -12z m73 -143 c17 -49 33
-98 37 -107 6 -16 0 -18 -68 -18 l-75 0 36 110 c20 60 37 108 38 107 1 -1 15
-42 32 -92z"/>
<path d="M6177 1923 c-11 -11 -8 -225 4 -267 6 -21 21 -49 34 -62 34 -34 108
-33 158 0 l35 24 6 -24 c5 -17 13 -24 31 -24 l25 0 -2 178 -3 177 -27 3 -28 3
0 -111 c0 -156 -22 -200 -99 -200 -62 0 -81 51 -81 221 0 87 -1 89 -23 89 -13
0 -27 -3 -30 -7z"/>
<path d="M6582 1753 l3 -178 30 0 30 0 5 127 c5 117 7 128 29 152 30 32 78 34
112 7 23 -18 24 -26 27 -155 l4 -136 29 0 29 0 0 138 c0 119 -3 141 -20 170
-23 37 -54 52 -108 52 -39 0 -101 -31 -103 -52 -1 -7 -4 1 -8 17 -5 23 -12 31
-34 33 l-27 3 2 -178z"/>
<path d="M7448 1918 c-18 -6 -28 -17 -28 -30 0 -17 4 -19 28 -14 86 20 100 19
126 -7 44 -44 35 -63 -35 -76 -104 -18 -149 -57 -149 -129 0 -24 9 -42 29 -63
25 -24 38 -29 79 -29 34 0 57 6 75 20 14 11 28 20 31 20 3 0 6 -9 6 -20 0 -16
7 -20 30 -20 l30 0 -1 103 c0 149 -10 195 -48 229 -27 24 -39 28 -89 27 -31 0
-69 -5 -84 -11z m152 -213 c0 -50 -21 -80 -65 -91 -61 -15 -104 41 -71 92 21
30 48 43 99 43 l37 1 0 -45z"/>
<path d="M7855 1916 c-133 -59 -137 -271 -7 -331 26 -12 40 -25 37 -32 -3 -7
-8 -19 -11 -27 -4 -10 2 -16 18 -18 15 -2 23 -10 23 -23 0 -16 -7 -20 -30 -20
-30 0 -48 -12 -39 -27 3 -4 23 -8 45 -8 41 0 79 26 79 54 0 16 -23 42 -42 48
-25 9 10 35 53 41 48 6 50 7 43 33 -5 18 -12 19 -69 16 -63 -4 -66 -3 -100 31
-32 32 -35 39 -35 97 0 58 3 65 35 97 34 34 37 35 100 31 57 -3 64 -2 69 16 3
11 3 22 0 25 -12 13 -141 10 -169 -3z"/>
<path d="M8138 1918 c-29 -10 -32 -16 -22 -41 4 -12 11 -12 42 -1 46 16 65 17
96 3 19 -9 46 -52 46 -75 0 -1 -24 -5 -52 -9 -121 -15 -183 -77 -159 -156 6
-21 21 -45 34 -54 31 -22 105 -19 145 5 l34 21 5 -21 c4 -13 14 -20 30 -20
l25 0 -4 143 c-3 154 -12 182 -64 205 -30 14 -118 14 -156 0z m162 -207 c0
-50 -30 -88 -76 -97 -45 -8 -74 16 -74 61 0 49 34 73 108 74 l42 1 0 -39z"/>
<path d="M8530 1908 c-58 -40 -74 -71 -78 -151 -2 -60 1 -78 20 -111 33 -56
79 -78 153 -74 74 4 119 33 146 92 39 85 11 196 -60 243 -47 32 -135 32 -181
1z m130 -33 c40 -20 60 -63 60 -125 0 -62 -20 -105 -60 -125 -36 -19 -54 -19
-89 0 -60 31 -81 143 -38 206 22 33 59 59 85 59 7 0 26 -7 42 -15z"/>
<path d="M9535 1920 c-28 -11 -72 -60 -84 -93 -19 -49 -13 -138 12 -181 30
-53 77 -76 154 -76 78 0 113 12 107 37 -5 17 -13 18 -70 15 -38 -3 -76 1 -95
8 -31 13 -59 55 -59 90 0 19 6 20 125 20 123 0 125 0 125 23 0 46 -23 102 -55
134 -29 29 -39 33 -86 32 -30 0 -63 -4 -74 -9z m107 -41 c22 -12 52 -74 43
-89 -4 -6 -46 -10 -96 -10 -84 0 -89 1 -89 21 0 12 15 36 34 55 36 36 70 43
108 23z"/>
<path d="M10450 1750 l0 -180 30 0 30 0 0 115 c0 84 4 124 15 145 29 56 90 67
124 24 19 -24 21 -40 21 -155 l0 -129 29 0 29 0 3 131 c4 129 4 131 32 155 35
30 78 31 103 3 16 -18 20 -42 24 -153 l5 -131 30 0 30 0 3 99 c5 186 -28 256
-123 256 -35 0 -52 -6 -79 -30 l-34 -30 -30 30 c-41 40 -106 42 -150 5 -17
-14 -33 -25 -36 -25 -3 0 -6 11 -6 25 0 20 -5 25 -25 25 l-25 0 0 -180z"/>
<path d="M11070 1680 l0 -250 30 0 30 0 0 98 c0 53 4 92 8 86 32 -47 130 -59
188 -24 97 60 98 261 2 320 -57 35 -132 26 -185 -23 l-23 -20 0 31 c0 27 -4
32 -25 32 l-25 0 0 -250z m230 172 c75 -75 34 -232 -62 -235 -42 -1 -85 24
-98 59 -13 32 -13 105 -1 137 27 71 109 90 161 39z"/>
<path d="M11518 1918 c-29 -10 -32 -16 -22 -41 4 -12 10 -12 47 0 57 20 103
10 122 -27 22 -43 20 -48 -37 -55 -98 -13 -150 -48 -162 -106 -7 -37 15 -93
42 -108 33 -18 104 -13 140 9 l34 21 5 -21 c3 -13 14 -20 29 -20 l24 0 0 131
c0 147 -12 189 -61 214 -32 17 -120 18 -161 3z m162 -207 c0 -50 -30 -88 -76
-97 -45 -8 -74 16 -74 63 0 27 6 37 33 53 18 12 50 20 75 20 l42 0 0 -39z"/>
<path d="M11850 1750 l0 -180 30 0 30 0 0 98 c0 149 16 188 83 201 25 5 33 12
35 34 3 24 0 27 -28 27 -21 0 -41 -9 -60 -29 l-29 -28 -6 28 c-5 22 -12 29
-31 29 l-24 0 0 -180z"/>
<path d="M12164 1916 c-63 -28 -99 -103 -92 -193 8 -95 72 -153 168 -153 63 0
106 22 144 73 17 23 21 43 21 107 0 87 -13 116 -75 158 -38 26 -116 30 -166 8z
m143 -58 c51 -48 53 -156 3 -211 -54 -60 -143 -34 -171 50 -22 68 10 161 65
184 30 12 76 2 103 -23z"/>
<path d="M12688 1914 c-39 -21 -27 -48 16 -37 59 15 107 9 127 -16 33 -41 25
-59 -28 -66 -114 -15 -163 -54 -163 -127 0 -60 42 -98 108 -98 34 0 57 6 75
20 14 11 28 20 31 20 3 0 6 -9 6 -20 0 -15 7 -20 28 -20 l27 0 -3 137 c-4 150
-15 186 -63 210 -33 17 -128 16 -161 -3z m162 -208 c0 -37 -5 -48 -31 -70 -37
-31 -72 -33 -99 -6 -52 52 -3 119 88 120 l42 0 0 -44z"/>
<path d="M13780 1750 l0 -180 30 0 30 0 0 180 0 180 -30 0 -30 0 0 -180z"/>
<path d="M14010 1908 c-72 -49 -100 -167 -58 -248 33 -65 76 -90 154 -90 77 0
117 13 112 37 -3 16 -13 17 -76 15 -55 -3 -79 0 -98 13 -23 15 -54 69 -54 95
0 6 46 10 125 10 l125 0 0 38 c-1 53 -33 118 -69 136 -45 24 -121 21 -161 -6z
m141 -47 c17 -17 29 -40 29 -55 0 -26 0 -26 -88 -26 -49 0 -91 3 -95 6 -10 11
15 64 40 84 37 29 79 26 114 -9z"/>
<path d="M14330 1750 l0 -180 30 0 30 0 0 110 c0 153 22 200 95 200 68 0 85
-39 85 -196 l0 -114 30 0 30 0 0 125 c0 143 -15 197 -61 220 -43 23 -101 19
-143 -10 l-36 -24 -6 24 c-4 18 -13 25 -30 25 l-24 0 0 -180z"/>
<path d="M14810 1907 c-63 -33 -93 -92 -88 -174 7 -106 67 -163 174 -163 77 0
94 6 94 34 0 21 -3 22 -55 18 -91 -7 -136 23 -150 101 -9 48 10 101 47 132 28
24 39 26 92 23 53 -3 61 -1 64 16 5 26 -15 36 -79 36 -39 0 -69 -7 -99 -23z"/>
<path d="M15080 1750 l0 -180 30 0 30 0 0 180 0 180 -30 0 -30 0 0 -180z"/>
<path d="M15288 1918 c-16 -5 -28 -17 -28 -27 0 -27 9 -30 45 -15 19 8 45 14
58 14 34 0 77 -37 77 -65 0 -20 -7 -24 -61 -34 -104 -18 -149 -57 -149 -129 0
-24 9 -42 29 -63 25 -24 38 -29 79 -29 34 0 57 6 75 20 14 11 27 20 30 20 3 0
7 -9 10 -20 3 -14 14 -20 31 -20 l26 0 -1 103 c0 149 -10 195 -48 229 -27 24
-39 28 -89 27 -31 0 -69 -5 -84 -11z m152 -213 c0 -50 -21 -80 -65 -91 -61
-15 -104 41 -71 92 21 30 48 43 99 43 l37 1 0 -45z"/>
<path d="M8200 1100 l0 -260 30 0 30 0 0 260 0 260 -30 0 -30 0 0 -260z"/>
<path d="M10140 1258 c0 -101 0 -101 -20 -83 -30 27 -116 31 -160 7 -49 -27
-80 -90 -80 -164 0 -104 44 -166 124 -175 59 -7 93 2 122 34 l24 26 0 -32 c0
-28 3 -31 30 -31 l30 0 0 260 0 260 -35 0 -35 0 0 -102z m-26 -139 c22 -26 26
-40 26 -99 0 -59 -4 -73 -26 -99 -21 -26 -33 -31 -68 -31 -67 0 -106 48 -106
131 0 76 43 129 106 129 35 0 47 -5 68 -31z"/>
<path d="M12410 1260 l0 -100 -32 20 c-46 28 -115 26 -158 -3 -53 -35 -75 -81
-75 -157 0 -117 53 -180 153 -180 43 0 57 5 87 31 l35 31 0 -31 c0 -26 4 -31
25 -31 l25 0 0 260 0 260 -30 0 -30 0 0 -100z m-34 -134 c24 -20 28 -33 32
-88 6 -99 -26 -148 -98 -148 -17 0 -40 5 -51 10 -64 35 -66 202 -2 239 33 19
90 13 119 -13z"/>
<path d="M13400 1260 l0 -100 -32 20 c-39 24 -107 26 -148 5 -40 -21 -69 -66
-82 -127 -15 -72 2 -130 52 -180 35 -35 42 -38 93 -38 49 0 61 4 92 31 l35 31
0 -31 c0 -26 4 -31 25 -31 l25 0 0 260 0 260 -30 0 -30 0 0 -100z m-28 -140
c29 -30 30 -33 26 -106 -3 -69 -6 -79 -31 -100 -30 -26 -83 -32 -118 -14 -64
35 -66 202 -2 239 10 6 35 11 56 11 30 0 45 -7 69 -30z"/>
<path d="M16508 1125 c-1 -129 -2 -245 -2 -257 -1 -18 5 -23 24 -23 20 0 26 6
30 30 4 23 7 26 12 13 22 -56 155 -64 208 -13 84 80 76 251 -13 305 -46 29
-115 26 -161 -5 l-36 -24 0 104 0 105 -30 0 -30 0 -2 -235z m227 3 c33 -29 48
-93 36 -150 -13 -58 -49 -88 -106 -88 -36 0 -47 5 -69 31 -22 25 -26 41 -26
90 0 63 18 111 47 128 32 18 90 13 118 -11z"/>
<path d="M9201 1326 c-28 -33 22 -83 55 -55 8 7 14 24 12 38 -2 20 -9 27 -29
29 -14 2 -31 -4 -38 -12z"/>
<path d="M14153 1333 l-33 -4 0 -245 0 -244 30 0 30 0 0 100 0 100 57 0 c66 0
133 28 158 66 43 66 22 170 -42 207 -32 19 -138 29 -200 20z m176 -77 c39 -39
36 -99 -7 -137 -27 -25 -41 -29 -87 -29 l-55 0 0 93 c0 52 3 97 8 101 4 5 31
6 61 3 40 -4 61 -13 80 -31z"/>
<path d="M6290 1305 c0 -24 2 -25 75 -25 l75 0 0 -220 0 -220 30 0 30 0 0 220
0 220 75 0 c73 0 75 1 75 25 l0 25 -180 0 -180 0 0 -25z"/>
<path d="M10892 1088 l3 -243 138 -3 137 -3 0 31 0 30 -105 0 -105 0 0 85 0
84 93 3 c91 3 92 3 92 28 0 25 -1 25 -92 28 l-93 3 0 74 0 75 100 0 100 0 0
25 0 25 -135 0 -135 0 2 -242z"/>
<path d="M11598 1268 c-22 -8 -28 -16 -28 -39 0 -24 -4 -29 -25 -29 -20 0 -25
-5 -25 -25 0 -20 5 -25 25 -25 l25 0 0 -107 c0 -121 12 -178 40 -193 10 -5 39
-10 64 -10 42 0 46 2 46 24 0 21 -6 25 -32 28 -48 5 -59 34 -56 153 l3 100 48
3 c43 3 48 5 45 25 -3 19 -10 22 -50 25 -46 3 -47 3 -50 41 -3 36 -4 37 -30
29z"/>
<path d="M5890 1177 c-55 -36 -75 -81 -75 -164 0 -80 15 -110 75 -150 26 -18
47 -23 96 -23 62 0 114 12 114 27 -1 24 -18 30 -60 24 -89 -14 -153 20 -166
87 l-6 32 126 0 126 0 0 37 c0 50 -36 120 -71 138 -43 23 -120 19 -159 -8z
m134 -39 c15 -13 29 -38 32 -55 l7 -33 -90 0 c-49 0 -92 3 -96 6 -10 11 15 64
40 84 34 26 76 25 107 -2z"/>
<path d="M6720 1177 c-55 -36 -75 -81 -75 -164 0 -80 15 -109 76 -151 30 -21
43 -23 111 -20 42 2 82 8 88 14 17 17 1 46 -21 39 -32 -10 -116 -7 -138 5 -26
13 -61 67 -61 93 0 15 13 17 125 17 l125 0 0 38 c-1 53 -33 118 -69 136 -45
24 -121 21 -161 -7z m134 -39 c15 -13 29 -38 32 -55 l7 -33 -90 0 c-49 0 -92
3 -96 6 -10 11 15 64 40 84 34 26 76 25 107 -2z"/>
<path d="M7108 1180 c-102 -55 -125 -213 -42 -295 38 -39 79 -50 159 -43 63 5
69 9 61 35 -5 17 -14 19 -65 15 -34 -2 -67 1 -80 8 -34 18 -61 70 -61 118 0
91 53 138 146 130 46 -4 55 -2 60 14 9 28 0 32 -74 35 -52 3 -75 -1 -104 -17z"/>
<path d="M7375 1188 c-3 -8 -4 -88 -3 -178 l3 -165 33 -3 32 -3 0 126 c0 127
0 127 29 156 38 37 82 39 116 4 24 -23 25 -29 25 -155 l0 -130 30 0 30 0 0
135 c0 145 -8 179 -52 209 -47 33 -143 14 -173 -33 -8 -13 -10 -10 -15 14 -4
21 -12 31 -28 33 -12 2 -24 -3 -27 -10z"/>
<path d="M7849 1179 c-54 -32 -84 -90 -84 -164 0 -71 23 -118 76 -153 29 -20
44 -23 99 -20 47 2 74 10 96 26 91 64 91 240 1 304 -46 33 -140 36 -188 7z
m125 -33 c84 -35 89 -200 7 -249 -36 -21 -54 -21 -91 -2 -40 20 -60 63 -60
125 0 64 22 107 63 125 40 18 41 18 81 1z"/>
<path d="M8460 1193 c-128 -48 -147 -253 -31 -330 47 -32 135 -32 181 0 57 38
74 70 78 147 4 58 1 75 -19 110 -30 52 -81 80 -146 79 -26 0 -55 -3 -63 -6z
m132 -73 c50 -54 49 -146 -2 -203 -56 -63 -147 -33 -171 56 -19 71 15 159 71
180 29 12 75 -3 102 -33z"/>
<path d="M8839 1177 c-135 -90 -83 -331 72 -329 22 1 56 10 75 21 l34 20 0
-35 c0 -96 -77 -135 -196 -99 -31 10 -40 -31 -11 -47 37 -21 157 -16 196 7 65
38 75 75 80 293 l3 194 -28 -4 c-21 -2 -30 -9 -32 -26 l-3 -23 -30 26 c-41 34
-111 35 -160 2z m156 -52 c22 -21 25 -33 25 -100 0 -67 -3 -79 -24 -100 -55
-55 -126 -40 -158 33 -41 93 6 192 92 192 30 0 47 -6 65 -25z"/>
<path d="M9200 1020 l0 -180 30 0 30 0 0 180 0 180 -30 0 -30 0 0 -180z"/>
<path d="M9408 1188 c-29 -10 -32 -16 -22 -41 4 -12 11 -12 42 -1 20 7 47 13
58 14 31 0 74 -37 74 -65 0 -21 -6 -25 -47 -30 -78 -11 -130 -39 -149 -78 -22
-46 -12 -99 23 -127 34 -26 107 -27 150 -1 31 19 31 19 36 0 3 -13 14 -19 32
-19 l27 0 -4 138 c-4 149 -13 179 -58 205 -31 19 -118 22 -162 5z m159 -213
c-5 -53 -27 -81 -68 -90 -40 -9 -64 1 -78 31 -24 54 27 104 108 104 l44 0 -6
-45z"/>
<path d="M10395 1186 c-65 -29 -95 -84 -95 -174 0 -114 65 -176 177 -170 75 5
108 25 141 88 43 85 17 198 -57 247 -39 27 -117 31 -166 9z m115 -41 c39 -20
62 -67 62 -125 0 -58 -23 -105 -62 -125 -37 -19 -55 -19 -90 2 -83 48 -76 206
11 250 31 16 44 16 79 -2z"/>
<path d="M11298 1184 c-34 -18 -48 -43 -48 -87 0 -40 24 -65 93 -97 56 -26 71
-48 58 -83 -12 -32 -58 -43 -107 -27 -30 10 -38 10 -45 -1 -5 -8 -9 -17 -9
-21 0 -16 42 -28 99 -28 53 0 65 4 93 29 27 24 33 36 33 69 0 50 -21 75 -97
113 -47 24 -58 34 -58 54 0 39 42 61 88 47 37 -12 51 -5 52 24 0 26 -109 32
-152 8z"/>
<path d="M11838 1188 c-16 -5 -28 -17 -28 -27 0 -27 9 -30 45 -15 19 8 45 14
58 14 34 0 77 -37 77 -65 0 -21 -6 -25 -47 -30 -73 -11 -129 -39 -147 -74 -25
-47 -20 -88 13 -122 25 -24 38 -29 79 -29 34 0 57 6 75 20 14 11 27 20 30 20
3 0 7 -9 10 -20 3 -14 14 -20 31 -20 l26 0 0 108 c-1 145 -11 190 -49 224 -27
24 -39 28 -89 27 -31 0 -69 -5 -84 -11z m152 -213 c0 -50 -21 -80 -65 -91 -61
-15 -104 41 -71 92 21 30 48 43 99 43 l37 1 0 -45z"/>
<path d="M12646 1178 c-54 -31 -81 -87 -81 -163 0 -109 62 -175 163 -175 107
0 175 70 175 179 0 112 -54 173 -158 179 -48 2 -68 -2 -99 -20z m128 -33 c62
-30 86 -137 46 -202 -30 -50 -64 -68 -108 -57 -52 13 -82 61 -82 131 0 67 21
110 63 128 41 18 43 18 81 0z"/>
<path d="M13630 1178 c-48 -33 -75 -91 -75 -163 0 -109 62 -175 165 -175 91 0
122 9 118 34 -2 14 -9 20 -23 19 -56 -7 -125 -4 -144 6 -25 14 -46 46 -55 84
l-6 27 125 0 125 0 0 41 c0 54 -26 107 -64 130 -44 27 -124 25 -166 -3z m141
-47 c17 -17 29 -40 29 -55 l0 -26 -90 0 -90 0 0 26 c0 15 12 38 29 55 40 39
82 39 122 0z"/>
<path d="M14550 1178 c-58 -40 -74 -71 -78 -151 -2 -60 1 -78 20 -111 31 -53
78 -76 155 -76 81 0 113 12 106 40 -4 14 -11 19 -23 15 -39 -12 -128 -7 -152
9 -27 18 -48 56 -48 86 0 19 8 20 125 20 123 0 125 0 125 23 0 46 -23 102 -55
134 -29 29 -39 33 -88 33 -40 0 -63 -6 -87 -22z m122 -29 c22 -12 52 -74 43
-89 -4 -6 -47 -10 -97 -10 l-90 0 6 28 c4 15 20 39 37 55 31 28 67 34 101 16z"/>
<path d="M14868 1193 c-2 -5 -2 -86 0 -180 l3 -173 29 0 30 0 0 119 c0 114 1
121 26 150 18 22 35 31 55 31 26 0 29 4 29 30 0 26 -4 30 -26 30 -16 0 -39
-13 -60 -34 l-34 -34 0 34 c0 29 -3 34 -24 34 -14 0 -26 -3 -28 -7z"/>
<path d="M15117 1193 c-2 -4 -2 -86 1 -180 l5 -173 28 0 29 0 0 126 c0 125 0
126 29 155 39 39 91 40 120 3 19 -24 21 -40 21 -156 l0 -129 33 3 32 3 -1 130
c0 139 -11 178 -56 209 -47 33 -143 14 -173 -33 -8 -13 -10 -10 -15 14 -3 21
-12 31 -27 33 -11 2 -23 0 -26 -5z"/>
<path d="M15558 1188 c-29 -10 -32 -16 -22 -41 4 -12 11 -12 42 -1 20 7 47 13
58 14 31 0 74 -37 74 -65 0 -21 -6 -25 -47 -30 -78 -11 -130 -39 -149 -78 -22
-46 -12 -99 23 -127 34 -26 107 -27 150 -1 31 19 31 19 36 0 3 -13 14 -19 31
-19 l26 0 0 113 c-1 141 -10 184 -50 220 -26 23 -39 27 -88 26 -31 0 -69 -5
-84 -11z m162 -193 c0 -73 -61 -129 -118 -109 -35 13 -49 57 -27 90 20 31 47
43 103 43 38 1 42 -1 42 -24z"/>
<path d="M15890 1020 l0 -180 30 0 30 0 0 124 c0 119 1 126 26 155 32 38 81
42 110 10 16 -18 19 -40 22 -155 l4 -134 29 0 29 0 0 124 c0 119 1 126 26 155
32 38 81 42 110 10 16 -18 19 -40 22 -155 l4 -134 29 0 29 0 0 135 c0 145 -8
179 -52 209 -43 30 -142 12 -166 -30 -7 -13 -13 -11 -40 15 -25 26 -38 31 -76
31 -36 0 -52 -6 -81 -31 l-35 -31 0 31 c0 26 -4 31 -25 31 l-25 0 0 -180z"/>
<path d="M16930 1065 c0 -145 8 -179 52 -209 47 -33 137 -15 175 34 10 13 12
10 13 -18 0 -30 2 -33 28 -30 18 2 27 9 26 21 0 9 -1 89 -2 177 l-2 160 -30 0
-30 0 0 -124 c0 -119 -1 -126 -26 -155 -20 -25 -34 -31 -63 -31 -66 0 -75 21
-79 176 l-4 134 -29 0 -29 0 0 -135z"/>
<path d="M17408 1180 c-49 -26 -74 -60 -88 -120 -10 -41 -9 -58 4 -104 27 -91
84 -124 201 -114 63 5 69 9 61 35 -5 17 -14 19 -65 15 -34 -2 -67 1 -80 8 -58
30 -80 134 -41 197 27 45 53 56 121 51 51 -4 60 -2 65 15 9 27 0 31 -74 34
-52 3 -75 -1 -104 -17z"/>
<path d="M17731 1178 c-71 -48 -98 -121 -79 -211 19 -90 90 -136 193 -125 90
11 139 73 140 178 0 113 -51 171 -158 178 -52 3 -67 0 -96 -20z m124 -32 c43
-18 65 -61 65 -126 0 -62 -20 -105 -60 -125 -36 -19 -54 -19 -89 0 -82 42 -80
215 3 251 39 17 40 17 81 0z"/>
</g>
</svg>
