<?xml version="1.0" standalone="no"?>
<!DOCTYPE svg PUBLIC "-//W3C//DTD SVG 20010904//EN"
 "http://www.w3.org/TR/2001/REC-SVG-20010904/DTD/svg10.dtd">
<svg version="1.0" xmlns="http://www.w3.org/2000/svg"
 width="4321.000000pt" height="2352.000000pt" viewBox="0 0 4321.000000 2352.000000"
 preserveAspectRatio="xMidYMid meet">

<g transform="translate(0.000000,2352.000000) scale(0.100000,-0.100000)"
fill="#000000" stroke="none">
<path d="M36585 15835 c-5 -2 -36 -6 -67 -10 l-58 -6 0 -620 0 -619 110 0 110
0 2 218 3 217 150 6 c169 7 257 25 345 69 148 75 210 211 189 412 -15 132 -80
222 -203 279 -99 45 -192 59 -393 58 -98 0 -182 -2 -188 -4z m402 -210 c114
-34 169 -126 143 -240 -23 -104 -90 -148 -256 -166 -55 -5 -120 -9 -144 -7
l-45 3 -3 212 -2 212 32 4 c59 9 222 -2 275 -18z"/>
<path d="M35200 15433 c1 -514 9 -580 91 -702 73 -109 193 -169 359 -178 283
-16 464 98 526 332 11 38 14 157 14 498 l0 447 -115 0 -115 0 0 -430 c0 -413
-1 -431 -21 -486 -29 -77 -83 -129 -155 -150 -149 -43 -289 29 -335 174 -8 25
-14 173 -16 465 l-5 427 -114 0 -114 0 0 -397z"/>
<path d="M37550 15205 l0 -625 425 0 425 0 0 95 0 95 -307 2 -308 3 0 180 0
180 253 3 252 2 0 95 0 95 -255 0 -256 0 3 153 3 152 288 3 287 2 0 95 0 95
-405 0 -405 0 0 -625z"/>
<path d="M9870 14193 l0 -390 -152 -6 c-533 -22 -1048 -211 -1503 -551 -156
-117 -404 -364 -518 -518 -255 -341 -420 -707 -502 -1113 -41 -205 -50 -298
-49 -550 0 -194 5 -267 22 -380 92 -595 338 -1093 747 -1514 210 -216 434
-384 687 -516 106 -55 285 -135 302 -135 3 0 6 658 6 1463 l-1 1462 -92 44
c-78 37 -105 57 -177 130 -94 95 -145 182 -175 301 -25 97 -17 262 17 358 70
196 234 351 438 413 112 35 255 32 370 -7 324 -109 513 -446 430 -768 -30
-119 -82 -209 -176 -303 -67 -68 -96 -89 -172 -125 l-92 -43 0 -1707 c0 -1136
-3 -1708 -10 -1708 -20 0 -297 79 -395 113 -318 109 -587 253 -865 460 -150
112 -440 393 -554 537 -184 231 -387 588 -484 847 -136 367 -195 695 -195
1088 0 504 100 926 325 1377 443 886 1289 1513 2263 1676 l110 19 3 201 2 202
-32 0 c-18 0 -87 -9 -153 -20 -1275 -213 -2322 -1100 -2739 -2318 -92 -267
-151 -553 -177 -851 -15 -171 -6 -562 15 -731 101 -777 447 -1482 996 -2030
287 -288 574 -493 935 -670 450 -220 884 -330 1408 -356 l137 -7 0 386 0 386
53 5 c28 3 101 8 161 11 215 11 518 77 742 161 628 233 1171 717 1472 1311
152 299 236 570 283 913 20 144 18 546 -4 695 -102 690 -435 1297 -952 1732
-194 163 -512 356 -712 433 l-53 20 0 -1490 c0 -1262 2 -1490 14 -1490 7 0 49
-18 93 -39 174 -88 307 -261 343 -448 19 -97 8 -263 -22 -345 -69 -186 -223
-338 -402 -397 -346 -116 -703 64 -827 416 -30 84 -36 238 -15 336 45 201 193
379 378 454 l68 28 0 1733 c0 1571 1 1732 16 1732 25 0 286 -77 402 -119 1017
-367 1779 -1247 1996 -2304 74 -360 81 -769 20 -1127 -65 -379 -203 -749 -402
-1076 -342 -565 -850 -1006 -1457 -1264 -205 -87 -532 -181 -720 -205 -93 -12
-85 9 -85 -220 l0 -204 38 5 c20 3 102 17 182 30 898 151 1729 678 2255 1430
360 514 573 1101 626 1721 15 182 7 585 -16 748 -140 1029 -688 1906 -1544
2473 -537 356 -1118 542 -1803 578 l-128 6 0 -389z"/>
<path d="M15475 13313 c-27 -2 -102 -10 -165 -19 -609 -81 -910 -313 -1029
-794 -57 -231 -55 -156 -58 -1912 l-4 -1618 461 0 460 0 0 499 0 499 1093 5
c1144 5 1195 7 1437 52 505 94 775 328 885 768 49 195 57 292 62 745 6 456 -4
664 -37 851 -90 498 -346 762 -841 870 -253 54 -252 54 -1269 56 -520 1 -967
0 -995 -2z m1675 -784 c204 -18 313 -54 395 -130 132 -122 161 -280 152 -841
-4 -240 -9 -353 -20 -403 -48 -222 -142 -318 -362 -368 -87 -20 -121 -21
-1133 -24 l-1043 -4 4 668 c3 601 5 675 21 738 60 235 189 334 473 364 118 13
1378 13 1513 0z"/>
<path d="M20500 13309 c-454 -43 -764 -170 -941 -383 -153 -186 -233 -439
-258 -821 -7 -101 -11 -705 -11 -1647 l0 -1488 460 0 460 0 0 500 0 500 948 0
c961 0 1261 8 1464 36 569 78 868 299 994 734 60 207 67 282 72 825 4 524 -2
660 -39 851 -75 391 -265 637 -593 770 -101 40 -295 89 -446 111 -101 14 -234
17 -1065 19 -522 1 -993 -2 -1045 -7z m1723 -780 c328 -28 467 -126 524 -367
21 -89 31 -798 13 -942 -38 -303 -163 -416 -499 -450 -64 -6 -475 -10 -1078
-10 l-975 0 5 648 c5 690 7 724 57 855 28 75 113 167 183 201 67 31 160 55
256 65 114 12 1376 13 1514 0z"/>
<path d="M25390 13308 c-684 -63 -960 -319 -1032 -956 -18 -161 -18 -1021 0
-1144 50 -340 194 -563 447 -690 118 -60 286 -107 500 -139 58 -9 418 -14
1310 -18 l1230 -6 0 -185 c-1 -147 -4 -197 -18 -243 -22 -73 -78 -136 -150
-168 l-52 -24 -717 -3 -718 -3 0 -380 0 -380 803 4 c841 4 870 6 1065 52 372
89 572 292 656 665 21 94 21 106 21 1345 0 1169 -1 1257 -18 1360 -67 394
-218 626 -502 768 -143 71 -364 126 -590 147 -135 12 -2099 11 -2235 -2z
m2121 -790 c139 -34 220 -93 273 -198 58 -116 61 -157 61 -730 l0 -515 -1105
0 c-994 0 -1113 2 -1186 17 -104 21 -171 55 -222 113 -54 61 -71 115 -84 265
-12 144 -4 612 12 708 36 216 148 322 372 351 34 5 457 8 938 7 766 -2 883 -4
941 -18z"/>
<path d="M30521 13309 c-307 -28 -548 -96 -709 -202 -226 -147 -348 -382 -392
-757 -6 -52 -14 -306 -17 -565 -6 -510 4 -775 36 -935 105 -528 426 -782 1086
-861 51 -6 385 -13 768 -16 l677 -5 0 350 0 350 -652 4 c-635 4 -655 5 -733
26 -196 54 -255 160 -255 461 l0 151 1721 0 1720 0 -4 638 c-4 692 -4 694 -63
851 -53 142 -166 271 -310 355 -91 54 -254 109 -406 138 -112 21 -128 22
-1243 24 -621 1 -1172 -2 -1224 -7z m2179 -722 c59 -23 106 -70 127 -126 16
-40 18 -81 18 -301 l0 -255 -1259 -3 -1258 -2 4 202 c6 240 20 304 89 382 60
68 129 99 269 120 14 2 462 3 995 2 907 -1 973 -2 1015 -19z"/>
<path d="M35610 13309 c-775 -72 -1104 -365 -1185 -1054 -21 -179 -30 -709
-16 -980 17 -347 62 -560 157 -745 135 -263 385 -427 761 -500 270 -52 270
-52 1741 -57 l1372 -4 0 390 0 390 -1307 4 c-1289 3 -1309 3 -1400 24 -120 28
-191 61 -251 117 -59 56 -94 117 -124 221 -23 78 -23 89 -23 535 0 441 1 457
23 535 51 183 150 274 349 322 61 16 195 17 1396 20 l1327 4 0 394 0 395
-1362 -1 c-750 -1 -1406 -6 -1458 -10z"/>
<path d="M25615 7903 c-63 -75 -114 -141 -112 -147 2 -5 25 -28 51 -50 l47
-40 132 133 132 132 -59 55 c-33 30 -63 54 -67 54 -4 0 -60 -62 -124 -137z"/>
<path d="M22770 7979 c-25 -4 -60 -11 -77 -14 l-33 -6 0 -201 0 -200 -22 7
c-105 33 -127 36 -202 31 -234 -16 -358 -189 -344 -479 6 -119 28 -186 86
-262 40 -53 120 -107 187 -128 63 -19 314 -15 408 6 l77 18 0 620 c0 583 -1
619 -17 618 -10 -1 -38 -5 -63 -10z m-157 -579 l47 -22 0 -239 0 -239 -27 -11
c-16 -6 -65 -9 -111 -7 -105 6 -152 34 -197 123 -28 54 -30 67 -30 159 1 109
20 169 70 216 57 53 159 62 248 20z"/>
<path d="M30620 7979 c-25 -4 -60 -11 -77 -14 l-33 -6 0 -201 c0 -187 -1 -200
-17 -193 -103 39 -219 43 -318 9 -72 -25 -164 -119 -193 -199 -58 -158 -48
-358 23 -480 49 -83 144 -151 245 -174 92 -21 266 -13 413 20 l47 11 0 619 0
619 -22 -1 c-13 -1 -43 -5 -68 -10z m-156 -578 l46 -20 0 -244 0 -244 -31 -7
c-56 -11 -149 -6 -187 10 -47 19 -88 58 -115 109 -19 34 -22 56 -22 155 0 99
3 121 22 155 27 50 71 93 109 105 42 14 125 5 178 -19z"/>
<path d="M33915 7916 c-9 -13 -29 -29 -45 -36 -26 -11 -39 -9 -110 20 -65 26
-90 32 -131 28 -61 -6 -113 -44 -146 -108 l-23 -44 45 -28 c25 -15 49 -28 53
-28 5 0 18 13 30 29 32 43 60 45 147 11 92 -37 146 -38 199 -7 38 23 96 98 96
123 0 12 -76 64 -93 64 -4 0 -14 -11 -22 -24z"/>
<path d="M27803 7866 c-250 -63 -404 -283 -403 -573 2 -311 153 -524 408 -573
86 -17 333 -7 432 17 l75 18 3 273 2 272 -100 0 -100 0 0 -200 0 -200 -27 -7
c-16 -4 -66 -7 -113 -7 -120 -1 -179 22 -251 93 -76 77 -101 141 -107 282 -6
158 20 250 94 337 94 110 291 134 476 58 l56 -23 31 80 c22 60 28 84 20 94 -6
7 -48 25 -93 39 -67 22 -104 27 -216 30 -90 2 -152 -1 -187 -10z"/>
<path d="M14732 7860 c-40 -4 -84 -11 -97 -14 l-25 -6 0 -555 0 -555 105 0
105 0 0 199 0 198 153 6 c115 4 168 10 217 26 177 56 259 178 248 366 -11 176
-94 269 -284 320 -69 19 -313 28 -422 15z m378 -197 c25 -11 58 -35 75 -52 26
-28 30 -40 33 -104 3 -63 1 -77 -20 -107 -45 -67 -146 -100 -305 -100 l-73 0
0 196 0 196 123 -4 c95 -3 132 -9 167 -25z"/>
<path d="M24462 7860 c-40 -4 -84 -11 -97 -14 l-25 -6 0 -555 0 -555 105 0
105 0 0 200 0 200 114 0 c323 0 482 103 502 325 19 209 -71 333 -282 390 -69
19 -313 28 -422 15z m327 -181 c101 -21 161 -86 161 -175 0 -138 -75 -191
-287 -201 l-113 -6 0 197 0 196 95 0 c51 0 117 -5 144 -11z"/>
<path d="M15760 7585 c-41 -8 -95 -20 -120 -28 l-45 -13 -3 -407 -2 -407 100
0 100 0 0 339 c0 383 -9 347 89 358 47 4 145 -8 186 -24 7 -2 16 22 23 59 7
35 15 73 18 85 5 18 0 23 -33 33 -64 18 -230 21 -313 5z"/>
<path d="M16459 7587 c-191 -54 -304 -243 -286 -478 15 -192 116 -334 274
-385 83 -26 240 -16 315 20 155 74 243 256 224 463 -16 173 -97 298 -234 361
-67 30 -217 40 -293 19z m189 -172 c74 -32 114 -90 132 -196 25 -144 -34 -291
-133 -328 -40 -16 -113 -14 -146 4 -44 22 -97 90 -112 143 -8 26 -14 83 -13
127 2 193 129 309 272 250z"/>
<path d="M17430 7590 c-125 -27 -237 -118 -282 -228 -20 -50 -23 -75 -23 -192
0 -131 1 -137 31 -201 52 -109 126 -167 243 -189 87 -16 167 -8 254 25 14 6
17 1 17 -32 0 -51 -37 -123 -78 -150 -69 -45 -259 -40 -383 11 -12 5 -18 -9
-31 -76 -9 -46 -14 -86 -12 -90 12 -19 167 -42 284 -42 233 1 342 64 397 225
16 49 18 96 18 479 l0 425 -80 17 c-97 21 -293 31 -355 18z m218 -166 c22 -6
22 -7 22 -226 l0 -219 -42 -19 c-52 -24 -156 -27 -197 -6 -41 22 -88 80 -100
123 -38 134 15 290 113 334 41 19 155 26 204 13z"/>
<path d="M18285 7589 c-33 -5 -89 -17 -125 -27 l-65 -17 -3 -408 -2 -407 100
0 100 0 0 339 c0 383 -9 347 89 357 51 6 141 -5 182 -21 13 -5 18 6 28 57 7
35 15 73 18 85 4 18 -1 23 -34 33 -54 15 -217 21 -288 9z"/>
<path d="M18817 7583 l-79 -15 6 -32 c3 -17 8 -55 12 -84 5 -42 10 -52 22 -47
40 15 114 26 182 27 123 2 180 -40 195 -142 l7 -45 -144 0 c-172 0 -230 -18
-296 -89 -50 -54 -66 -108 -60 -202 9 -135 83 -209 232 -235 79 -13 265 -6
381 14 l70 12 0 310 c0 277 -2 316 -19 364 -24 69 -73 123 -139 152 -68 30
-252 36 -370 12z m332 -488 c7 -4 11 -47 11 -110 0 -85 -3 -104 -16 -109 -9
-3 -54 -6 -100 -6 -133 0 -184 32 -184 117 0 84 72 126 202 119 42 -2 81 -7
87 -11z"/>
<path d="M19780 7593 c-19 -1 -77 -10 -127 -20 l-93 -16 0 -414 0 -413 100 0
100 0 0 344 0 344 74 7 c118 11 170 -16 197 -104 7 -21 13 -149 16 -313 l5
-278 94 0 94 0 0 288 c0 158 -4 304 -9 325 -9 37 -8 38 32 59 29 15 61 22 104
22 73 1 107 -19 138 -80 18 -36 20 -62 23 -326 l3 -288 101 0 100 0 -4 313
c-5 342 -10 376 -67 454 -78 108 -288 133 -458 54 l-61 -29 -36 24 c-66 45
-180 62 -326 47z"/>
<path d="M21046 7585 c-38 -8 -73 -18 -76 -22 -9 -10 13 -159 23 -156 126 31
261 34 308 7 39 -22 79 -93 79 -139 l0 -30 -137 0 c-171 0 -224 -15 -293 -85
-55 -54 -76 -118 -67 -209 9 -107 68 -182 169 -217 44 -16 80 -19 208 -18 85
1 189 8 230 16 l75 14 0 309 c0 350 -4 378 -66 449 -60 68 -120 89 -264 92
-76 2 -145 -2 -189 -11z m322 -489 c8 -5 12 -41 12 -111 0 -85 -3 -104 -16
-109 -9 -3 -54 -6 -101 -6 -98 0 -146 17 -168 61 -36 68 -7 136 70 165 41 15
179 15 203 0z"/>
<path d="M23315 7587 c-184 -62 -285 -214 -285 -432 0 -238 106 -387 309 -435
92 -22 366 2 399 34 5 5 -14 156 -21 162 -1 1 -36 -7 -77 -18 -141 -37 -283
-15 -347 54 -26 27 -53 88 -53 118 0 20 5 20 280 20 l280 0 0 68 c0 212 -71
354 -208 415 -59 26 -217 34 -277 14z m196 -173 c38 -19 76 -79 85 -131 l7
-43 -182 0 c-207 0 -201 -3 -156 86 50 101 151 138 246 88z"/>
<path d="M25529 7587 c-189 -54 -302 -240 -286 -472 14 -200 110 -335 275
-390 85 -27 238 -18 316 20 111 53 183 150 212 284 49 235 -40 456 -218 536
-52 23 -80 29 -158 32 -58 2 -113 -2 -141 -10z m229 -193 c20 -17 50 -56 67
-89 26 -53 30 -69 29 -150 0 -71 -5 -100 -23 -140 -40 -91 -100 -135 -181
-135 -81 0 -141 45 -181 135 -18 40 -22 68 -22 140 0 110 25 178 86 230 45 39
62 44 135 41 40 -2 61 -9 90 -32z"/>
<path d="M26387 7589 c-89 -21 -163 -82 -187 -154 -7 -20 -10 -69 -8 -109 6
-121 56 -173 237 -242 117 -46 178 -97 166 -141 -9 -39 -22 -51 -64 -63 -71
-20 -216 -4 -312 35 -13 5 -19 -9 -33 -75 -10 -45 -16 -83 -14 -86 3 -2 42
-14 88 -25 69 -18 105 -21 209 -17 111 3 133 7 186 31 33 16 68 36 79 45 36
32 56 92 56 172 0 145 -49 197 -256 275 -91 34 -129 60 -144 95 -10 25 -10 34
5 56 26 41 79 57 160 51 39 -3 90 -12 115 -21 24 -8 46 -14 47 -12 6 6 36 156
32 160 -2 2 -39 11 -81 20 -83 17 -219 20 -281 5z"/>
<path d="M28715 7589 c-33 -5 -89 -17 -125 -27 l-65 -17 -3 -408 -2 -407 100
0 100 0 0 339 c0 383 -9 347 89 357 51 6 141 -5 182 -21 13 -5 18 6 28 57 7
35 15 73 18 85 4 18 -1 23 -34 33 -54 15 -217 21 -288 9z"/>
<path d="M29247 7583 l-79 -15 6 -32 c3 -17 8 -55 12 -84 5 -42 10 -52 22 -47
40 15 114 26 183 27 123 2 179 -39 194 -142 l7 -45 -144 0 c-172 0 -230 -18
-296 -89 -50 -54 -66 -108 -60 -202 9 -135 83 -209 232 -235 79 -13 265 -6
381 14 l70 12 0 310 c0 277 -2 316 -19 364 -24 69 -73 123 -139 152 -68 30
-252 36 -370 12z m332 -488 c7 -4 11 -47 11 -110 0 -85 -3 -104 -16 -109 -9
-3 -54 -6 -100 -6 -133 0 -184 32 -184 117 0 84 72 126 202 119 42 -2 81 -7
87 -11z"/>
<path d="M31965 7585 c-33 -8 -66 -14 -72 -14 -16 -1 -16 -26 -2 -106 l11 -62
56 14 c92 21 213 20 253 -3 48 -28 79 -78 79 -128 l0 -41 -132 0 c-149 0 -193
-10 -264 -58 -70 -47 -97 -104 -96 -207 0 -133 55 -211 172 -248 67 -21 323
-21 435 0 l70 13 0 325 0 325 -28 58 c-34 69 -76 102 -158 128 -73 23 -232 25
-324 4z m288 -481 l38 -7 -3 -111 -3 -111 -85 -3 c-143 -5 -205 29 -205 113 0
94 107 143 258 119z"/>
<path d="M32950 7587 c-189 -55 -300 -216 -300 -437 0 -149 46 -267 133 -345
44 -40 136 -85 172 -85 19 0 19 -9 0 -53 -20 -49 -20 -50 25 -69 27 -11 40
-23 40 -36 0 -34 -25 -45 -90 -39 -33 3 -62 2 -64 -1 -2 -4 -7 -30 -11 -59
l-7 -51 32 -7 c18 -4 67 -7 110 -7 136 1 197 52 187 156 -3 39 -11 55 -34 77
-17 14 -36 28 -43 31 -24 8 8 48 38 48 30 0 162 27 170 34 6 7 -19 166 -27
166 -3 0 -31 -7 -61 -15 -113 -30 -235 -13 -292 42 -59 57 -91 190 -69 294 34
162 158 230 335 184 33 -9 61 -14 63 -11 3 2 13 37 23 77 21 81 21 81 -40 100
-55 17 -238 21 -290 6z"/>
<path d="M33595 7594 c-11 -2 -46 -9 -77 -16 -32 -6 -58 -14 -58 -19 0 -4 5
-41 11 -82 l11 -74 56 14 c32 7 94 14 138 15 128 2 181 -37 199 -147 l6 -40
-143 0 c-112 -1 -153 -5 -188 -18 -75 -30 -118 -65 -146 -123 -23 -47 -26 -63
-23 -137 4 -72 8 -90 34 -133 59 -96 177 -132 390 -120 66 4 152 12 190 19
l70 12 0 305 c0 260 -3 313 -17 360 -23 73 -66 123 -135 156 -51 26 -68 28
-177 31 -67 1 -130 0 -141 -3z m274 -499 c7 -4 11 -47 11 -110 0 -85 -3 -104
-16 -109 -31 -12 -184 -6 -219 8 -44 19 -68 57 -68 107 0 79 77 122 205 115
42 -2 81 -7 87 -11z"/>
<path d="M34519 7587 c-211 -60 -328 -295 -274 -551 8 -38 25 -89 37 -115 34
-70 109 -144 181 -177 57 -27 71 -29 182 -29 112 0 124 2 179 29 144 70 226
220 226 411 0 191 -83 339 -229 408 -54 26 -78 31 -160 34 -59 2 -114 -2 -142
-10z m194 -171 c46 -19 102 -87 118 -144 19 -64 17 -186 -4 -248 -17 -50 -68
-109 -114 -133 -27 -14 -103 -14 -140 0 -37 14 -81 56 -104 100 -58 115 -37
312 43 386 53 49 138 66 201 39z"/>
<path d="M35815 7587 c-186 -62 -285 -214 -285 -437 0 -233 108 -383 309 -430
91 -21 366 2 398 34 3 3 0 42 -7 86 -11 68 -15 80 -29 75 -58 -23 -154 -36
-226 -33 -126 7 -192 51 -226 150 l-18 53 285 3 284 2 0 68 c0 212 -71 354
-208 414 -60 26 -217 34 -277 15z m206 -182 c38 -25 67 -74 76 -131 l6 -34
-182 0 c-207 0 -201 -4 -155 88 53 106 161 139 255 77z"/>
<path d="M36695 7594 c-16 -2 -72 -11 -122 -20 l-93 -16 0 -414 0 -414 100 0
100 0 0 344 0 344 64 7 c84 9 131 -1 165 -36 45 -44 51 -92 51 -388 l0 -271
101 0 101 0 -4 313 c-2 171 -6 318 -8 326 -8 25 67 55 137 55 73 1 107 -19
138 -80 18 -36 20 -63 23 -326 l4 -288 100 0 100 0 -4 308 c-4 280 -7 313 -26
373 -39 119 -117 173 -267 186 -79 6 -165 -11 -241 -50 l-47 -24 -68 35 c-63
33 -76 35 -171 38 -57 1 -116 0 -133 -2z"/>
<path d="M30922 7283 c4 -275 6 -303 27 -367 64 -196 257 -249 629 -175 l52
10 0 415 0 414 -95 0 -95 0 0 -340 c0 -315 -1 -341 -17 -348 -10 -4 -57 -7
-105 -7 -72 0 -91 4 -114 21 -75 56 -84 100 -84 425 l0 249 -101 0 -101 0 4
-297z"/>
<path d="M26860 7190 l0 -90 220 0 220 0 0 90 0 90 -220 0 -220 0 0 -90z"/>
<path d="M20925 6349 c-27 -5 -60 -12 -72 -14 l-23 -5 0 -615 0 -615 100 0
100 0 0 339 0 340 57 11 c72 15 147 8 181 -17 15 -10 38 -41 51 -68 24 -47 25
-56 29 -327 l5 -278 93 0 94 0 0 288 c0 308 -7 362 -51 442 -29 53 -94 105
-152 122 -49 14 -203 17 -264 5 l-43 -9 0 206 0 206 -27 -1 c-16 -1 -50 -5
-78 -10z"/>
<path d="M25455 6349 c-107 -19 -95 8 -95 -220 0 -177 -2 -200 -15 -195 -122
46 -241 47 -342 1 -149 -66 -223 -225 -210 -449 10 -191 98 -322 257 -383 65
-25 293 -25 418 1 l92 18 0 619 0 619 -27 -1 c-16 -1 -50 -5 -78 -10z m-142
-577 l47 -21 0 -240 c0 -149 -4 -242 -10 -246 -21 -13 -147 -17 -188 -6 -54
15 -120 73 -144 129 -43 97 -29 264 29 340 55 72 163 90 266 44z"/>
<path d="M23251 6306 c-34 -19 -50 -54 -51 -108 0 -68 37 -109 106 -115 83 -7
134 39 134 122 0 46 -16 79 -50 98 -33 20 -105 22 -139 3z"/>
<path d="M34921 6288 c-41 -51 -58 -53 -144 -19 -106 42 -161 42 -218 -1 -23
-18 -53 -53 -66 -77 l-23 -45 50 -29 50 -29 34 36 c18 20 43 36 54 36 11 0 54
-13 95 -30 119 -47 169 -39 240 39 32 35 57 87 46 95 -2 1 -24 14 -49 28 l-45
25 -24 -29z"/>
<path d="M27393 6235 c-177 -48 -308 -177 -366 -360 -18 -59 -22 -93 -22 -215
0 -124 3 -156 23 -220 47 -150 122 -243 242 -304 98 -49 161 -59 320 -53 110
4 150 9 217 31 45 15 85 31 88 37 6 8 -42 169 -50 169 -1 0 -34 -12 -71 -27
-61 -23 -84 -27 -189 -27 -106 -1 -126 2 -173 23 -105 47 -175 159 -191 306
-26 229 66 411 232 460 97 29 241 14 336 -35 37 -18 40 -18 46 -2 8 19 55 154
55 158 0 6 -109 46 -162 59 -80 19 -265 19 -335 0z"/>
<path d="M16240 5665 l0 -565 380 0 380 0 0 85 0 85 -277 2 -278 3 0 165 0
165 228 3 227 2 0 85 0 85 -230 0 -230 0 0 135 0 135 260 0 260 0 0 90 0 90
-360 0 -360 0 0 -565z"/>
<path d="M32287 6192 l-88 -15 3 -431 c4 -364 7 -439 20 -479 27 -81 61 -122
125 -154 53 -25 68 -28 163 -28 123 0 234 27 226 54 -3 9 -10 44 -17 79 -11
58 -14 63 -33 57 -57 -17 -145 -27 -178 -21 -24 4 -47 19 -66 41 -39 43 -44
86 -40 315 l3 175 148 3 147 3 0 79 0 79 -147 3 -148 3 -3 128 c-2 92 -6 127
-15 126 -7 -1 -52 -8 -100 -17z"/>
<path d="M17350 5964 c-14 -2 -64 -12 -112 -20 l-88 -16 0 -414 0 -414 100 0
100 0 0 344 0 344 66 7 c115 13 171 -4 216 -66 28 -39 38 -138 38 -391 l0
-238 96 0 95 0 -3 318 c-4 365 -8 383 -88 462 -65 66 -116 82 -270 85 -69 2
-136 1 -150 -1z"/>
<path d="M18323 5955 c-188 -51 -293 -197 -293 -407 0 -190 79 -326 219 -379
70 -27 213 -29 280 -5 24 9 45 16 47 16 2 0 4 -18 4 -40 0 -132 -107 -195
-290 -172 -47 5 -105 17 -130 26 -24 8 -46 13 -48 11 -2 -2 -12 -40 -22 -84
l-18 -81 52 -15 c86 -25 228 -36 319 -26 167 19 261 79 308 197 24 59 24 62
27 495 l3 436 -33 7 c-175 38 -334 45 -425 21z m245 -161 c9 -2 12 -56 12
-223 l0 -220 -32 -17 c-19 -10 -64 -19 -103 -21 -59 -3 -76 0 -110 19 -80 47
-117 149 -97 267 19 111 81 184 171 202 33 6 130 2 159 -7z"/>
<path d="M19233 5956 c-180 -58 -273 -208 -273 -436 0 -301 166 -453 475 -437
104 6 208 26 226 44 6 6 -8 150 -16 160 -1 2 -39 -7 -86 -18 -153 -39 -280
-15 -347 66 -31 38 -57 108 -47 125 4 6 112 10 279 10 l274 0 5 33 c8 52 -11
201 -33 260 -28 73 -88 139 -158 174 -49 24 -71 28 -157 30 -64 2 -115 -2
-142 -11z m194 -167 c49 -24 91 -84 95 -139 l3 -35 -170 -3 c-93 -1 -175 0
-182 2 -10 4 -9 17 7 57 23 63 52 96 105 120 52 24 89 24 142 -2z"/>
<path d="M20075 5959 c-33 -5 -84 -14 -112 -20 l-53 -10 0 -415 0 -414 95 0
95 0 0 340 c0 315 1 341 18 348 9 4 58 7 107 7 105 0 133 -13 168 -79 21 -39
22 -55 25 -328 l3 -288 101 0 100 0 -4 303 c-4 244 -8 312 -21 352 -33 101
-87 159 -179 193 -51 18 -254 25 -343 11z"/>
<path d="M21846 5954 c-38 -7 -70 -15 -72 -16 -1 -2 2 -39 8 -82 l11 -78 31 6
c180 31 237 31 294 -4 37 -23 71 -88 72 -136 l0 -30 -111 4 c-197 8 -309 -35
-367 -143 -27 -48 -23 -198 5 -251 31 -58 84 -101 151 -121 92 -28 374 -21
495 14 17 5 18 22 15 321 -3 236 -8 326 -18 352 -50 131 -146 181 -339 179
-58 0 -137 -7 -175 -15z m318 -484 c26 -9 26 -11 26 -114 0 -121 5 -116 -117
-116 -125 0 -183 39 -183 124 0 43 34 85 81 102 41 15 158 18 193 4z"/>
<path d="M22750 5955 c-41 -8 -93 -20 -115 -28 l-40 -14 -3 -407 -2 -406 100
0 100 0 0 339 c0 230 3 342 11 346 24 16 165 17 220 2 l57 -14 17 79 c9 44 13
84 9 88 -31 29 -230 37 -354 15z"/>
<path d="M23735 5954 c-38 -9 -70 -16 -71 -17 -1 -1 4 -36 10 -77 14 -86 -1
-80 151 -60 101 14 152 6 200 -32 32 -25 55 -75 55 -120 l0 -33 -137 0 c-171
0 -224 -15 -293 -85 -56 -55 -76 -120 -66 -206 14 -118 67 -185 174 -220 89
-30 371 -22 495 12 16 5 17 28 17 302 0 326 -6 374 -58 447 -18 25 -49 51 -86
70 -55 28 -66 30 -190 32 -90 2 -153 -2 -201 -13z m314 -480 l31 -6 0 -108 c0
-103 -1 -108 -22 -114 -42 -11 -168 -6 -202 8 -68 28 -98 110 -60 165 35 50
151 75 253 55z"/>
<path d="M25993 5951 c-151 -55 -245 -193 -260 -379 -12 -164 44 -327 138
-402 86 -67 143 -84 299 -84 99 -1 152 4 199 17 36 10 67 20 70 22 4 5 -15
154 -21 160 -2 3 -26 -3 -53 -12 -32 -10 -89 -16 -155 -17 -95 -1 -110 2 -155
25 -60 30 -104 89 -112 147 l-6 42 283 0 283 0 -6 108 c-11 213 -86 331 -241
377 -70 21 -199 19 -263 -4z m234 -177 c38 -29 72 -93 73 -136 l0 -28 -181 0
-181 0 6 33 c11 55 57 118 106 145 58 31 126 25 177 -14z"/>
<path d="M28253 5956 c-179 -58 -273 -206 -273 -432 0 -268 136 -428 376 -441
258 -15 419 138 432 411 10 212 -65 364 -216 438 -60 30 -75 33 -172 35 -68 2
-120 -2 -147 -11z m218 -176 c80 -41 126 -155 116 -287 -11 -142 -79 -230
-186 -241 -131 -12 -221 98 -221 272 0 127 45 221 125 261 43 21 118 19 166
-5z"/>
<path d="M29135 5959 c-33 -5 -84 -14 -112 -20 l-53 -10 0 -415 0 -414 100 0
100 0 0 344 0 343 38 7 c113 18 182 -3 216 -69 20 -37 21 -60 24 -332 l3 -293
100 0 100 0 -4 308 c-2 169 -7 317 -11 328 -7 20 -1 24 51 44 76 28 151 24
189 -11 55 -50 58 -70 62 -381 l4 -288 100 0 100 0 -4 308 c-5 274 -8 314 -26
370 -27 83 -60 125 -127 157 -105 52 -279 43 -391 -19 l-42 -23 -41 28 c-23
15 -64 32 -92 38 -58 13 -197 12 -284 0z"/>
<path d="M30520 5960 c-30 -5 -81 -14 -112 -21 l-58 -12 0 -563 0 -564 100 0
100 0 0 160 c0 88 2 160 4 160 2 0 23 -7 47 -16 29 -11 77 -17 139 -18 84 0
102 3 155 27 75 35 129 86 164 157 93 183 69 442 -52 577 -94 103 -270 144
-487 113z m241 -175 c52 -19 93 -55 122 -110 19 -34 22 -56 22 -155 0 -99 -3
-121 -22 -156 -57 -108 -166 -139 -290 -84 l-43 19 0 245 c0 279 -10 253 101
255 37 0 86 -6 110 -14z"/>
<path d="M33015 5966 c-5 -2 -36 -9 -69 -16 l-58 -12 6 -51 c4 -29 9 -66 12
-83 l6 -31 51 15 c29 7 93 15 142 15 78 2 95 -1 126 -21 43 -26 69 -75 69
-129 l0 -38 -143 0 -142 0 -70 -35 c-102 -51 -129 -93 -133 -209 -6 -149 41
-223 171 -268 83 -29 379 -21 490 13 16 5 17 29 17 313 0 345 -5 378 -64 448
-58 67 -117 87 -271 90 -71 1 -134 1 -140 -1z m254 -492 l31 -6 0 -109 c0
-108 0 -109 -26 -115 -47 -12 -190 1 -219 20 -34 22 -58 79 -50 116 8 36 49
78 89 89 37 11 131 13 175 5z"/>
<path d="M33938 5951 c-109 -35 -179 -98 -229 -205 -53 -113 -63 -238 -29
-372 35 -139 119 -230 246 -271 30 -9 54 -20 54 -25 0 -5 -7 -25 -15 -45 -17
-41 -18 -39 27 -61 59 -30 45 -82 -23 -82 -21 0 -49 4 -63 9 -23 10 -25 8 -35
-40 -6 -27 -11 -56 -11 -63 0 -18 45 -26 138 -26 129 0 192 46 192 140 0 50
-22 91 -61 114 -24 14 -27 21 -19 35 7 13 30 22 83 29 93 14 127 27 127 48 0
34 -24 144 -31 144 -4 0 -36 -7 -71 -16 -84 -22 -181 -15 -239 17 -150 83
-156 388 -8 486 51 34 148 42 234 19 32 -8 61 -14 62 -12 11 10 43 150 36 157
-4 4 -35 15 -68 23 -81 22 -225 20 -297 -3z"/>
<path d="M34541 5954 c-36 -8 -66 -16 -68 -17 -2 -2 2 -40 8 -84 l12 -79 51
13 c28 8 92 15 141 16 75 2 96 -1 125 -18 42 -25 66 -65 75 -125 l7 -45 -150
0 -149 0 -69 -35 c-93 -47 -127 -101 -132 -206 -9 -170 66 -256 249 -285 92
-14 293 -2 417 26 l22 5 0 273 c0 357 -13 429 -87 499 -58 56 -115 72 -258 75
-85 1 -152 -3 -194 -13z m337 -488 c8 -5 12 -40 12 -110 0 -121 5 -116 -120
-116 -83 0 -151 24 -169 58 -6 12 -11 40 -11 64 0 36 6 50 29 72 15 15 41 31
57 36 33 11 183 8 202 -4z"/>
<path d="M35525 5956 c-199 -63 -309 -265 -276 -507 21 -156 97 -271 220 -332
62 -30 71 -32 181 -32 108 0 119 2 182 32 159 75 237 230 225 448 -14 255
-168 406 -411 404 -44 0 -99 -6 -121 -13z m211 -177 c170 -82 160 -441 -13
-515 -107 -46 -227 23 -263 150 -19 68 -9 221 17 271 25 46 67 90 103 104 42
17 111 12 156 -10z"/>
<path d="M23220 5525 l0 -425 100 0 100 0 0 425 0 425 -100 0 -100 0 0 -425z"/>
<path d="M31280 5688 c0 -145 5 -292 10 -328 21 -130 89 -221 194 -257 70 -25
275 -24 409 1 l97 18 0 414 0 414 -100 0 -100 0 0 -344 0 -344 -64 -7 c-96
-10 -144 1 -187 44 -52 52 -59 98 -59 396 l0 255 -100 0 -100 0 0 -262z"/>
</g>
</svg>
