<?xml version="1.0" standalone="no"?>
<!DOCTYPE svg PUBLIC "-//W3C//DTD SVG 20010904//EN"
 "http://www.w3.org/TR/2001/REC-SVG-20010904/DTD/svg10.dtd">
<svg version="1.0" xmlns="http://www.w3.org/2000/svg"
 width="300.000000pt" height="177.000000pt" viewBox="0 0 300.000000 177.000000"
 preserveAspectRatio="xMidYMid meet">

<g transform="translate(0.000000,177.000000) scale(0.100000,-0.100000)"
fill="#000000" stroke="none">
<path d="M432 1763 c-16 -3 -41 -37 -93 -126 -40 -67 -121 -204 -181 -304
-138 -232 -151 -260 -151 -343 -1 -115 67 -215 182 -269 52 -24 65 -26 196
-26 157 0 238 18 369 79 148 69 239 160 358 361 l48 80 0 -242 0 -243 170 0
170 0 2 183 3 182 205 5 c163 5 213 9 244 23 21 9 40 17 42 17 2 0 4 -101 4
-225 l0 -225 490 0 490 0 0 120 0 120 -315 0 -316 0 3 93 3 92 248 3 247 2 0
110 0 110 -250 0 -250 0 0 90 0 90 315 0 315 0 0 115 0 115 -490 0 c-483 0
-490 0 -490 -20 0 -11 -1 -20 -2 -20 -2 0 -25 8 -53 16 -35 12 -115 20 -260
26 -316 14 -587 20 -612 13 -15 -3 -74 -92 -209 -315 -260 -432 -280 -460
-334 -487 -53 -27 -87 -29 -119 -7 -20 15 -23 23 -19 65 4 40 34 96 205 376
110 180 206 338 212 351 l12 22 -183 -1 c-101 -1 -193 -4 -206 -6z m1497 -68
c65 -20 114 -50 159 -96 53 -54 66 -86 67 -165 0 -128 -68 -222 -202 -275 -53
-21 -78 -23 -270 -27 l-213 -4 0 -184 0 -184 -135 0 -135 0 0 264 0 264 61
104 c33 56 93 154 132 216 l72 114 205 -5 c156 -3 218 -8 259 -22z m1021 -65
l0 -80 -315 0 -315 0 0 -120 0 -120 245 0 245 0 0 -80 0 -80 -245 0 -245 0 0
-130 0 -130 315 0 316 0 -3 -82 -3 -83 -452 -3 -453 -2 0 222 0 223 30 20 c69
46 120 154 120 253 0 77 -33 145 -98 204 -29 25 -52 51 -52 57 0 8 131 11 455
11 l455 0 0 -80z"/>
<path d="M1460 1425 l0 -145 143 0 c167 0 201 8 247 55 31 32 35 42 35 90 0
43 -5 59 -25 81 -49 53 -90 64 -252 64 l-148 0 0 -145z m340 90 c79 -47 72
-147 -12 -185 -35 -16 -66 -20 -170 -20 l-128 0 0 116 0 116 138 -4 c116 -2
142 -6 172 -23z"/>
<path d="M1598 632 c-32 -4 -68 -45 -68 -76 1 -35 25 -57 92 -79 50 -17 64
-27 66 -44 3 -17 -4 -26 -24 -33 -34 -13 -60 -5 -81 26 -12 18 -21 23 -37 18
-29 -9 -29 -9 -12 -42 19 -38 64 -56 122 -49 61 6 84 29 84 82 0 52 -16 68
-92 90 -64 18 -76 29 -58 50 18 22 67 19 82 -5 12 -19 52 -28 61 -12 8 12 -11
50 -30 60 -24 12 -72 19 -105 14z"/>
<path d="M52 523 c6 -125 10 -139 49 -158 54 -28 147 -11 163 30 3 9 6 66 6
126 l0 109 -25 0 c-24 0 -24 -1 -27 -107 -3 -104 -4 -108 -29 -122 -24 -13
-29 -13 -53 2 -25 17 -26 20 -26 122 l0 105 -31 0 -32 0 5 -107z"/>
<path d="M340 490 c0 -141 0 -141 23 -138 20 3 22 9 27 90 l5 87 50 -81 c54
-87 73 -105 99 -95 14 5 16 26 16 142 l0 135 -25 0 c-24 0 -24 -2 -27 -92 l-3
-93 -56 90 c-45 73 -61 91 -82 93 l-27 3 0 -141z"/>
<path d="M620 490 l0 -140 25 0 25 0 0 140 0 140 -25 0 -25 0 0 -140z"/>
<path d="M736 533 c68 -192 64 -183 94 -183 26 0 30 6 77 140 l50 140 -28 0
c-26 0 -29 -5 -62 -102 -31 -92 -36 -100 -44 -78 -5 14 -22 60 -37 103 -26 72
-30 77 -57 77 l-28 0 35 -97z"/>
<path d="M990 490 l0 -140 105 0 105 0 0 25 c0 25 -1 25 -81 25 l-80 0 3 38 3
37 68 3 c59 3 67 5 67 22 0 18 -7 20 -71 20 l-70 0 3 33 3 32 78 3 c69 3 77 5
77 22 0 19 -7 20 -105 20 l-105 0 0 -140z"/>
<path d="M1252 493 l3 -138 24 0 c22 0 24 4 25 55 1 49 4 55 23 58 23 3 32 -5
83 -75 24 -35 36 -43 61 -43 l31 0 -23 38 c-12 20 -34 49 -47 65 -14 15 -20
27 -13 27 21 0 61 48 61 75 0 14 -11 37 -25 50 -22 23 -32 25 -115 25 l-91 0
3 -137z m162 75 c20 -32 -4 -53 -60 -53 -44 0 -49 3 -52 23 -6 44 4 53 54 50
31 -2 51 -9 58 -20z"/>
<path d="M1792 493 l3 -138 25 0 25 0 3 138 3 137 -31 0 -31 0 3 -137z"/>
<path d="M1910 500 c0 -72 0 -133 0 -137 0 -5 35 -7 76 -7 58 1 82 6 102 21
69 51 63 202 -9 239 -17 8 -57 14 -99 14 l-70 0 0 -130z m145 65 c20 -19 25
-34 25 -72 0 -69 -20 -93 -76 -93 l-44 0 0 95 0 95 35 0 c25 0 44 -8 60 -25z"/>
<path d="M2266 622 c-3 -5 -26 -62 -51 -128 -26 -65 -49 -125 -52 -131 -3 -9
4 -13 21 -13 20 0 30 8 43 35 16 34 19 35 70 35 52 0 55 -1 69 -35 11 -27 20
-35 39 -35 14 0 25 4 25 10 0 5 -23 68 -52 140 -49 123 -53 130 -79 130 -15 0
-30 -4 -33 -8z m44 -87 c5 -14 13 -37 16 -50 6 -23 3 -25 -30 -25 -20 0 -36 3
-36 7 0 11 32 93 37 93 2 0 8 -11 13 -25z"/>
<path d="M2470 489 l0 -142 79 6 c43 3 88 10 100 16 37 20 54 67 49 139 -4 58
-8 68 -36 93 -30 27 -38 29 -112 29 l-80 0 0 -141z m159 76 c11 -11 16 -34 16
-76 0 -72 -16 -89 -82 -89 l-43 0 0 88 c0 49 3 92 8 96 11 12 83 -1 101 -19z"/>
<path d="M2752 493 l3 -138 103 -3 102 -3 0 26 c0 25 -1 25 -75 25 l-75 0 0
40 0 40 70 0 c63 0 70 2 70 20 0 18 -7 20 -70 20 l-70 0 0 35 0 35 75 0 c68 0
75 2 75 20 0 19 -7 20 -105 20 l-106 0 3 -137z"/>
<path d="M49 308 c0 -2 -2 -11 -4 -20 -3 -17 73 -18 1476 -18 1472 0 1479 0
1479 20 0 20 -7 20 -1475 20 -811 0 -1475 -1 -1476 -2z"/>
<path d="M90 125 l0 -115 61 0 c73 0 96 11 115 55 18 44 18 79 -2 120 -18 39
-55 55 -125 55 l-49 0 0 -115z m124 59 c10 -10 16 -33 16 -64 0 -55 -22 -80
-72 -80 l-28 0 0 80 0 80 34 0 c19 0 42 -7 50 -16z"/>
<path d="M320 125 l0 -115 90 0 c72 0 90 3 90 15 0 11 -16 15 -67 17 l-68 3 0
30 c0 30 1 30 58 33 49 3 57 6 57 22 0 18 -7 20 -61 20 -57 0 -60 1 -57 23 3
20 9 22 66 25 54 3 62 6 62 22 0 18 -7 20 -85 20 l-85 0 0 -115z"/>
<path d="M630 125 c0 -107 1 -115 19 -115 16 0 20 8 23 43 l3 42 53 5 c61 6
73 19 70 75 -4 49 -29 65 -110 65 l-58 0 0 -115z m121 59 c20 -24 -1 -48 -45
-52 -35 -3 -36 -2 -36 32 0 34 2 36 34 36 18 0 39 -7 47 -16z"/>
<path d="M850 125 l0 -115 85 0 c69 0 85 3 85 15 0 12 -14 15 -65 15 l-65 0 0
35 0 35 61 0 c52 0 60 2 57 17 -2 14 -15 19 -61 21 -53 3 -57 5 -57 27 0 24 3
25 65 25 58 0 65 2 65 20 0 18 -7 20 -85 20 l-85 0 0 -115z"/>
<path d="M1070 238 c-1 -2 -2 -54 -3 -116 -2 -110 -2 -112 21 -112 19 0 22 5
22 45 0 40 2 45 23 45 15 0 31 -14 52 -45 24 -35 36 -45 58 -45 l29 0 -35 49
-36 49 25 17 c35 22 31 83 -6 102 -20 10 -149 19 -150 11z m130 -53 c19 -23
-5 -45 -51 -45 -37 0 -39 2 -39 30 0 28 2 30 39 30 22 0 44 -6 51 -15z"/>
<path d="M1300 125 c0 -107 1 -115 20 -115 17 0 19 8 22 73 l3 72 45 -72 c34
-55 50 -73 68 -73 22 0 22 2 22 115 0 108 -1 115 -20 115 -18 0 -20 -7 -20
-77 l0 -78 -50 78 c-35 54 -56 77 -70 77 -19 0 -20 -6 -20 -115z"/>
<path d="M1562 132 c-23 -60 -42 -112 -42 -115 0 -4 9 -7 20 -7 13 0 24 10 30
25 8 22 15 25 59 25 44 0 49 -3 55 -25 5 -18 13 -25 31 -25 14 0 25 1 25 3 0
2 -20 52 -44 112 -38 94 -47 110 -68 113 -23 3 -28 -6 -66 -106z m86 1 c11
-33 11 -33 -23 -33 l-33 0 15 40 c18 44 24 43 41 -7z"/>
<path d="M1770 125 c0 -108 1 -115 20 -115 17 0 19 8 22 83 3 81 3 81 15 42 6
-22 17 -59 23 -82 9 -35 15 -43 33 -43 21 0 26 10 44 83 l21 82 1 -82 c1 -76
3 -83 21 -83 19 0 20 7 20 116 l0 115 -32 -3 c-32 -3 -34 -6 -52 -76 -11 -40
-22 -69 -26 -65 -4 4 -15 38 -25 76 -17 66 -18 67 -51 67 l-34 0 0 -115z"/>
<path d="M2047 233 c-4 -3 -7 -55 -7 -115 l0 -108 78 0 c83 0 93 4 111 37 13
25 1 68 -21 75 -11 4 -11 8 0 21 21 25 11 70 -18 84 -26 13 -132 18 -143 6z
m130 -49 c8 -22 -22 -44 -59 -44 -24 0 -28 4 -28 30 0 28 2 30 40 30 28 0 43
-5 47 -16z m4 -90 c21 -25 -1 -49 -50 -52 -41 -3 -41 -3 -41 32 0 35 1 36 39
36 23 0 44 -6 52 -16z"/>
<path d="M2280 149 c0 -50 4 -99 10 -109 13 -24 66 -42 107 -34 52 10 63 35
63 141 0 86 -1 93 -20 93 -18 0 -20 -7 -20 -81 0 -91 -10 -119 -45 -119 -44 0
-55 24 -55 116 0 77 -2 84 -20 84 -19 0 -20 -7 -20 -91z"/>
<path d="M2560 227 c-33 -17 -50 -53 -50 -109 0 -84 70 -135 145 -104 37 16
56 53 34 67 -21 13 -27 11 -34 -10 -7 -24 -37 -35 -66 -26 -38 12 -52 92 -23
133 18 26 65 30 84 7 16 -19 50 -20 50 -1 0 23 -50 56 -84 56 -17 0 -42 -6
-56 -13z"/>
<path d="M2779 212 c-25 -23 -32 -38 -36 -78 -5 -64 21 -109 73 -123 83 -23
144 23 144 110 0 61 -11 84 -50 104 -46 24 -95 19 -131 -13z m125 -34 c52 -74
-32 -180 -94 -118 -25 25 -27 95 -3 122 23 26 78 24 97 -4z"/>
</g>
</svg>
